# xmcd CD database file
#
# Track frame offsets:
#	150
#	15229
#	31300
#	44952
#	61602
#	79105
#	95631
#	108137
#	126143
#	140739
#	159730
#
# Disc length: 2274 seconds
#
# Revision: 1
# Processed by: cddbd v1.5.2PL0 Copyright (c) Steve Scherf et al.
# Submitted via: CDex 1.70beta2
#
DISCID=8c08e00b
DTITLE=Coco Love Alcorn - Joyful
DYEAR=2009
DGENRE=Rhythmic Soul
TTITLE0=01 Compassion
TTITLE1=02 I Got a Bicycle
TTITLE2=03 Stranger
TTITLE3=04 Revolution
TTITLE4=05 Super Glue
TTITLE5=06 Intellectual Boys
TTITLE6=07 Where Do The Robots Go When They Die
TTITLE7=08 Sleepless
TTITLE8=09 Props
TTITLE9=10 Hope for the World
TTITLE10=11 Joyful
EXTD=YEAR: 2009
EXTT0=
EXTT1=
EXTT2=
EXTT3=
EXTT4=
EXTT5=
EXTT6=
EXTT7=
EXTT8=
EXTT9=
EXTT10=
PLAYORDER=
